# xmcd
#
# Track frame offsets:
#  150
#  16952
#  36050
#  54940
#  75252
#  93715
#  107457
#  124362
#  140670
#  159650
#  177262
#  194065
#  213165
#  232055
#  252370
#  270830
#  284572
#  301477
#  317785
#  336765
#
# Disc length: 4725 seconds
#
# Revision: 0
# Processed by: cddbd v1.5.1PL2 Copyright (c) Steve Scherf et al.
# Submitted via: Collectorz.com_Music_Collector 6.11
#
DISCID=1e127314
DTITLE=Various (First name - Surname) - Top HIts Monthly-Country-C0508
DYEAR=1900
DGENRE=Country - Karaoke
TTITLE0=Lee Ann Womack - He Oughta Know That By Now (Vocals)
TTITLE1=Brad Paisley -  Alcohol (vocals)
TTITLE2=Rebecca Lynn Howard - No One'll Ever Love Me (vocals)
TTITLE3=Trisha Yearwood - Georgia Rain (vocals)
TTITLE4=Sara Evans - A Fine Place To Start (vocals)
TTITLE5=Erika Jo - I Break Things (vocals)
TTITLE6=Shooter Jennings - 4th Of July (vocals)
TTITLE7=Kenny Chesney - Keg In The Closet (vocals)
TTITLE8=Josh Gracin - Stay With Me (vocal)
TTITLE9=Craig Morgan - Redneck Yacht Club (vocals)
TTITLE10=Lee Ann Womack - He Oughta Know That By Know
TTITLE11=Brad Paisley - Alcohol
TTITLE12=Rebecca Lynn Howard - No One'll Ever Love Me
TTITLE13=Trisha Yearwood - Georgia Rain
TTITLE14=Sara Evans - A Real Fine Place To Start
TTITLE15=Erika Jo - I Break Things
TTITLE16=Shooter Jennings - 4th Of July
TTITLE17=Kenny Chesney - Keg In The Closet
TTITLE18=Josh Gracin - Stay With Me
TTITLE19=Craig Morgan - Redneck Yacht Club
EXTD=
EXTT0=
EXTT1=
EXTT2=
EXTT3=
EXTT4=
EXTT5=
EXTT6=
EXTT7=
EXTT8=
EXTT9=
EXTT10=
EXTT11=
EXTT12=
EXTT13=
EXTT14=
EXTT15=
EXTT16=
EXTT17=
EXTT18=
EXTT19=
PLAYORDER=
